<svg width="171" height="28" viewBox="0 0 171 28" fill="none" xmlns="http://www.w3.org/2000/svg">
<path d="M27.1172 28H0.359375V-0.0078125H4.36328V23.9961H27.1172V28ZM59.4311 28H30.4662V-0.0078125H59.4311V3.99609H34.4702V23.9961H59.4311V28ZM56.0327 16.0078H36.4623V12.0039H56.0327V16.0078ZM96.2958 28H90.8856L82.4872 19.9922H70.2216V16.0469H86.2958C87.1291 16.0469 87.9104 15.8906 88.6395 15.5781C89.3687 15.2526 90.0002 14.8164 90.5341 14.2695C91.0809 13.7227 91.5106 13.0846 91.8231 12.3555C92.1356 11.6133 92.2919 10.8255 92.2919 9.99219C92.2919 9.15885 92.1356 8.3776 91.8231 7.64844C91.5106 6.91927 91.0809 6.28776 90.5341 5.75391C90.0002 5.20703 89.3687 4.77734 88.6395 4.46484C87.9104 4.15234 87.1291 3.99609 86.2958 3.99609H67.9755V28H63.9716V-0.0078125H86.2958C87.676 -0.0078125 88.9716 0.259115 90.1825 0.792969C91.3934 1.3138 92.4481 2.02995 93.3466 2.94141C94.258 3.83984 94.9742 4.89453 95.495 6.10547C96.0289 7.31641 96.2958 8.61198 96.2958 9.99219C96.2958 11.2422 96.0809 12.4271 95.6512 13.5469C95.2216 14.6536 94.6291 15.6497 93.8739 16.5352C93.1187 17.4076 92.2268 18.1367 91.1981 18.7227C90.1825 19.2956 89.0822 19.6797 87.8973 19.875L96.2958 28ZM104.996 28H100.993V-0.0078125H102.985C104.287 -0.0078125 105.667 0.161458 107.125 0.5C108.597 0.838542 110.094 1.32682 111.618 1.96484C113.141 2.60286 114.658 3.3776 116.168 4.28906C117.692 5.1875 119.163 6.20964 120.582 7.35547C122.002 8.5013 123.336 9.7513 124.586 11.1055C125.836 12.4466 126.956 13.8789 127.946 15.4023V-0.0078125H131.95V28H127.946C127.946 25.9427 127.588 23.9635 126.871 22.0625C126.155 20.1484 125.198 18.3451 124 16.6523C122.802 14.9596 121.422 13.4036 119.86 11.9844C118.297 10.5521 116.663 9.29557 114.957 8.21484C113.265 7.13411 111.559 6.2487 109.84 5.55859C108.121 4.85547 106.507 4.38672 104.996 4.15234V28ZM170.084 28H166.08V19.9922H143.736V16.0078H166.08V3.99609H151.724C150.357 3.99609 149.068 4.26302 147.857 4.79688C146.646 5.31771 145.592 6.03385 144.693 6.94531C143.795 7.84375 143.079 8.89844 142.545 10.1094C142.024 11.3203 141.763 12.6159 141.763 13.9961V28H137.76V13.9961C137.76 12.707 137.922 11.4701 138.248 10.2852C138.586 9.08724 139.055 7.97396 139.654 6.94531C140.266 5.90365 140.995 4.95964 141.842 4.11328C142.701 3.25391 143.645 2.51823 144.674 1.90625C145.715 1.29427 146.829 0.825521 148.013 0.5C149.198 0.161458 150.435 -0.0078125 151.724 -0.0078125H170.084V28Z" fill="#8E4AD6"/>
</svg>
